<svg xmlns="http://www.w3.org/2000/svg" height="800" width="1200" viewBox="-150 -47.8 1300 286.8"><g transform="translate(0 86.8)"><path fill-rule="evenodd" clip-rule="evenodd" fill="#40ab5d" d="M155.5-25.1h42.9V0h-42.9z"/><linearGradient gradientTransform="matrix(1.8318 0 0 -1.8318 381.813 477.953)" y2="255.826" x2="-111.943" y1="241.804" x1="-111.722" gradientUnits="userSpaceOnUse" id="a"><stop offset="0" stop-color="#358c7b"/><stop offset=".526" stop-color="#33a65e"/></linearGradient><path fill="url(#a)" fill-rule="evenodd" clip-rule="evenodd" d="M155.5 9.7h42.9v25.1h-42.9z"/><linearGradient gradientTransform="matrix(1.8318 0 0 -1.8318 381.813 477.953)" y2="235.917" x2="-99.772" y1="223.628" x1="-123.891" gradientUnits="userSpaceOnUse" id="b"><stop offset="0" stop-color="#222b90"/><stop offset="1" stop-color="#367b99"/></linearGradient><path fill="url(#b)" fill-rule="evenodd" clip-rule="evenodd" d="M155.5 44.5h42.9v25.1h-42.9z"/><linearGradient gradientTransform="matrix(1.8318 0 0 -1.8318 381.813 477.953)" y2="210.773" x2="-185.032" y1="210.773" x1="-208.432" gradientUnits="userSpaceOnUse" id="c"><stop offset="0" stop-color="#f90"/><stop offset="1" stop-color="#ff8000"/></linearGradient><path fill="url(#c)" fill-rule="evenodd" clip-rule="evenodd" d="M0 79.3h42.9v25.1H0z"/><linearGradient gradientTransform="matrix(1.8318 0 0 -1.8318 381.813 477.953)" y2="210.773" x2="-156.732" y1="210.773" x1="-180.132" gradientUnits="userSpaceOnUse" id="d"><stop offset="0" stop-color="#ff8000"/><stop offset="1" stop-color="#cc1953"/></linearGradient><path fill="url(#d)" fill-rule="evenodd" clip-rule="evenodd" d="M51.8 79.3h42.9v25.1H51.8z"/><linearGradient gradientTransform="matrix(1.8318 0 0 -1.8318 381.813 477.953)" y2="210.773" x2="-128.432" y1="210.773" x1="-151.832" gradientUnits="userSpaceOnUse" id="e"><stop offset="0" stop-color="#cc1953"/><stop offset="1" stop-color="#241284"/></linearGradient><path fill="url(#e)" fill-rule="evenodd" clip-rule="evenodd" d="M103.7 79.3h42.9v25.1h-42.9z"/><linearGradient gradientTransform="matrix(1.8318 0 0 -1.8318 381.813 477.953)" y2="210.773" x2="-100.16" y1="210.773" x1="-123.56" gradientUnits="userSpaceOnUse" id="f"><stop offset="0" stop-color="#222b90"/><stop offset="1" stop-color="#3559a6"/></linearGradient><path fill="url(#f)" fill-rule="evenodd" clip-rule="evenodd" d="M155.5 79.3h42.9v25.1h-42.9z"/><linearGradient gradientTransform="matrix(1.8318 0 0 -1.8318 381.813 477.953)" y2="233.464" x2="-127.508" y1="226.081" x1="-152.755" gradientUnits="userSpaceOnUse" id="g"><stop offset="0" stop-color="#cc1953"/><stop offset="1" stop-color="#241284"/></linearGradient><path fill="url(#g)" fill-rule="evenodd" clip-rule="evenodd" d="M103.7 44.5h42.9v25.1h-42.9z"/><linearGradient gradientTransform="matrix(1.8318 0 0 -1.8318 381.813 477.953)" y2="225.211" x2="-155.899" y1="234.334" x1="-180.965" gradientUnits="userSpaceOnUse" id="h"><stop offset=".003" stop-color="#fc0"/><stop offset="1" stop-color="#ce1938"/></linearGradient><path fill="url(#h)" fill-rule="evenodd" clip-rule="evenodd" d="M51.8 44.5h42.9v25.1H51.8z"/><linearGradient gradientTransform="matrix(1.8318 0 0 -1.8318 381.813 477.953)" y2="239.791" x2="-158.699" y1="257.754" x1="-178.165" gradientUnits="userSpaceOnUse" id="i"><stop offset=".003" stop-color="#ffd100"/><stop offset="1" stop-color="#fd5a22"/></linearGradient><path fill="url(#i)" fill-rule="evenodd" clip-rule="evenodd" d="M51.8 9.7h42.9v25.1H51.8z"/></g></svg>